<mxfile host="65bd71144e">
    <diagram id="tbGwR7wvgous5h1mbf4j" name="Page-1">
        <mxGraphModel dx="624" dy="737" grid="1" gridSize="10" guides="1" tooltips="1" connect="1" arrows="1" fold="1" page="1" pageScale="1" pageWidth="850" pageHeight="1100" math="0" shadow="0">
            <root>
                <mxCell id="0"/>
                <mxCell id="1" parent="0"/>
                <mxCell id="6" value="" style="edgeStyle=none;html=1;" parent="1" source="2" target="4" edge="1">
                    <mxGeometry relative="1" as="geometry"/>
                </mxCell>
                <mxCell id="14" style="edgeStyle=none;html=1;exitX=0.5;exitY=1;exitDx=0;exitDy=0;entryX=0;entryY=0.5;entryDx=0;entryDy=0;" parent="1" source="2" target="7" edge="1">
                    <mxGeometry relative="1" as="geometry"/>
                </mxCell>
                <mxCell id="2" value="&lt;div style=&quot;color: rgb(212 , 212 , 212) ; background-color: rgb(30 , 30 , 30) ; font-family: &amp;#34;droid sans mono&amp;#34; , &amp;#34;monospace&amp;#34; , monospace ; font-size: 13px ; line-height: 18px&quot;&gt;&lt;span style=&quot;color: #4ec9b0&quot;&gt;GradPOVMEstimator&lt;/span&gt;&lt;/div&gt;" style="shape=ext;double=1;rounded=1;whiteSpace=wrap;html=1;" parent="1" vertex="1">
                    <mxGeometry x="70" y="310" width="170" height="80" as="geometry"/>
                </mxCell>
                <mxCell id="5" value="" style="edgeStyle=none;html=1;" parent="1" source="4" target="2" edge="1">
                    <mxGeometry relative="1" as="geometry"/>
                </mxCell>
                <mxCell id="4" value="&lt;div style=&quot;color: rgb(212 , 212 , 212) ; background-color: rgb(30 , 30 , 30) ; font-family: &amp;#34;droid sans mono&amp;#34; , &amp;#34;monospace&amp;#34; , monospace ; font-size: 13px ; line-height: 18px&quot;&gt;&lt;span style=&quot;color: #dcdcaa&quot;&gt;__init__()&lt;/span&gt;&lt;/div&gt;" style="shape=delay;whiteSpace=wrap;html=1;" parent="1" vertex="1">
                    <mxGeometry x="270" y="330" width="80" height="40" as="geometry"/>
                </mxCell>
                <mxCell id="11" style="edgeStyle=none;html=1;entryX=0.5;entryY=0;entryDx=0;entryDy=0;" parent="1" source="7" target="9" edge="1">
                    <mxGeometry relative="1" as="geometry"/>
                </mxCell>
                <mxCell id="7" value="&lt;div style=&quot;color: rgb(212 , 212 , 212) ; background-color: rgb(30 , 30 , 30) ; font-family: &amp;#34;droid sans mono&amp;#34; , &amp;#34;monospace&amp;#34; , monospace ; font-size: 13px ; line-height: 18px&quot;&gt;&lt;span style=&quot;color: #dcdcaa&quot;&gt;estimate&lt;/span&gt;(&lt;span style=&quot;color: #9cdcfe&quot;&gt;self&lt;/span&gt;, &lt;span style=&quot;color: #9cdcfe&quot;&gt;total_shots&lt;/span&gt;)&lt;/div&gt;" style="shape=delay;whiteSpace=wrap;html=1;" parent="1" vertex="1">
                    <mxGeometry x="260" y="410" width="210" height="50" as="geometry"/>
                </mxCell>
                <mxCell id="13" value="" style="edgeStyle=none;html=1;" parent="1" source="9" target="12" edge="1">
                    <mxGeometry relative="1" as="geometry"/>
                </mxCell>
                <mxCell id="9" value="&lt;div style=&quot;color: rgb(212 , 212 , 212) ; background-color: rgb(30 , 30 , 30) ; font-family: &amp;#34;droid sans mono&amp;#34; , &amp;#34;monospace&amp;#34; , monospace ; font-size: 13px ; line-height: 18px&quot;&gt;&lt;span style=&quot;color: #9cdcfe&quot;&gt;result&lt;/span&gt; = &lt;span style=&quot;color: #9cdcfe&quot;&gt;self&lt;/span&gt;.&lt;span style=&quot;color: #9cdcfe&quot;&gt;optimizer&lt;/span&gt;.&lt;span style=&quot;color: #dcdcaa&quot;&gt;run_step&lt;/span&gt;(&lt;span style=&quot;color: #9cdcfe&quot;&gt;return_counts&lt;/span&gt;=&lt;span style=&quot;color: #9cdcfe&quot;&gt;self&lt;/span&gt;.&lt;span style=&quot;color: #9cdcfe&quot;&gt;return_counts&lt;/span&gt;)&lt;/div&gt;" style="shape=ext;double=1;rounded=1;whiteSpace=wrap;html=1;" parent="1" vertex="1">
                    <mxGeometry x="60" y="520" width="535" height="80" as="geometry"/>
                </mxCell>
                <mxCell id="10" style="edgeStyle=none;html=1;" parent="1" source="9" target="9" edge="1">
                    <mxGeometry relative="1" as="geometry"/>
                </mxCell>
                <mxCell id="16" value="" style="edgeStyle=none;html=1;" parent="1" source="12" target="15" edge="1">
                    <mxGeometry relative="1" as="geometry"/>
                </mxCell>
                <mxCell id="19" value="" style="edgeStyle=none;html=1;" edge="1" parent="1" source="12" target="15">
                    <mxGeometry relative="1" as="geometry"/>
                </mxCell>
                <mxCell id="12" value="&lt;div style=&quot;color: rgb(212 , 212 , 212) ; background-color: rgb(30 , 30 , 30) ; font-family: &amp;#34;droid sans mono&amp;#34; , &amp;#34;monospace&amp;#34; , monospace ; font-size: 13px ; line-height: 18px&quot;&gt;&lt;span style=&quot;color: #9cdcfe&quot;&gt;povm_op&lt;/span&gt; = &lt;span style=&quot;color: #4ec9b0&quot;&gt;POVMOperator&lt;/span&gt;(&lt;span style=&quot;color: #9cdcfe&quot;&gt;self&lt;/span&gt;.&lt;span style=&quot;color: #9cdcfe&quot;&gt;initial_povm_op&lt;/span&gt;, &lt;span style=&quot;color: #9cdcfe&quot;&gt;povm_params&lt;/span&gt;=&lt;span style=&quot;color: #9cdcfe&quot;&gt;self&lt;/span&gt;.&lt;span style=&quot;color: #9cdcfe&quot;&gt;povm_params&lt;/span&gt;)&lt;/div&gt;&lt;div style=&quot;color: rgb(212 , 212 , 212) ; background-color: rgb(30 , 30 , 30) ; font-family: &amp;#34;droid sans mono&amp;#34; , &amp;#34;monospace&amp;#34; , monospace ; font-size: 13px ; line-height: 18px&quot;&gt;...&lt;/div&gt;&lt;div style=&quot;color: rgb(212 , 212 , 212) ; background-color: rgb(30 , 30 , 30) ; font-family: &amp;#34;droid sans mono&amp;#34; , &amp;#34;monospace&amp;#34; , monospace ; font-size: 13px ; line-height: 18px&quot;&gt;&lt;div style=&quot;font-family: &amp;#34;droid sans mono&amp;#34; , &amp;#34;monospace&amp;#34; , monospace ; line-height: 18px&quot;&gt;&lt;div&gt;&lt;span style=&quot;color: #9cdcfe&quot;&gt;result&lt;/span&gt; = execute(&lt;/div&gt;&lt;div&gt;            &lt;span style=&quot;color: #9cdcfe&quot;&gt;&lt;span style=&quot;white-space: pre&quot;&gt;&#9;&lt;/span&gt;povm_qc&lt;/span&gt;,&lt;/div&gt;&lt;div&gt;            &lt;span style=&quot;color: #9cdcfe&quot;&gt;&lt;span style=&quot;white-space: pre&quot;&gt;&#9;&lt;/span&gt;backend&lt;/span&gt;=&lt;span style=&quot;color: #9cdcfe&quot;&gt;self&lt;/span&gt;.&lt;span style=&quot;color: #9cdcfe&quot;&gt;backend&lt;/span&gt;,&lt;/div&gt;&lt;div&gt;            &lt;span style=&quot;color: #9cdcfe&quot;&gt;&lt;span style=&quot;white-space: pre&quot;&gt;&#9;&lt;/span&gt;seed_simulator&lt;/span&gt;=&lt;span style=&quot;color: #9cdcfe&quot;&gt;self&lt;/span&gt;.&lt;span style=&quot;color: #9cdcfe&quot;&gt;seed&lt;/span&gt; + &lt;span style=&quot;color: #9cdcfe&quot;&gt;self&lt;/span&gt;.&lt;span style=&quot;color: #9cdcfe&quot;&gt;step&lt;/span&gt; &lt;span style=&quot;color: #c586c0&quot;&gt;if&lt;/span&gt; &lt;span style=&quot;color: #9cdcfe&quot;&gt;self&lt;/span&gt;.&lt;span style=&quot;color: #9cdcfe&quot;&gt;seed&lt;/span&gt; &lt;span style=&quot;color: #c586c0&quot;&gt;is&lt;/span&gt; &lt;span style=&quot;white-space: pre&quot;&gt;&#9;&lt;/span&gt;&lt;span style=&quot;color: #c586c0&quot;&gt;not&lt;/span&gt; &lt;span style=&quot;color: #569cd6&quot;&gt;None&lt;/span&gt; &lt;span style=&quot;color: #c586c0&quot;&gt;else&lt;/span&gt; &lt;span style=&quot;color: #569cd6&quot;&gt;None&lt;/span&gt;,&lt;/div&gt;&lt;div&gt;            &lt;span style=&quot;color: #9cdcfe&quot;&gt;&lt;span style=&quot;white-space: pre&quot;&gt;&#9;&lt;/span&gt;shots&lt;/span&gt;=&lt;span style=&quot;color: #9cdcfe&quot;&gt;self&lt;/span&gt;.&lt;span style=&quot;color: #9cdcfe&quot;&gt;shots&lt;/span&gt;,&lt;/div&gt;&lt;div&gt;        &lt;span style=&quot;white-space: pre&quot;&gt;&#9;&lt;/span&gt;).result()&lt;/div&gt;&lt;div&gt;...&lt;/div&gt;&lt;/div&gt;&lt;/div&gt;&lt;div style=&quot;color: rgb(212 , 212 , 212) ; background-color: rgb(30 , 30 , 30) ; font-family: &amp;#34;droid sans mono&amp;#34; , &amp;#34;monospace&amp;#34; , monospace ; font-size: 13px ; line-height: 18px&quot;&gt;&lt;div style=&quot;line-height: 18px&quot;&gt;&lt;span style=&quot;color: #9cdcfe&quot;&gt;grad&lt;/span&gt; = &lt;span style=&quot;color: #9cdcfe&quot;&gt;povm_op&lt;/span&gt;.&lt;span style=&quot;color: #dcdcaa&quot;&gt;estimate_variance_gradient&lt;/span&gt;(&lt;span style=&quot;color: #9cdcfe&quot;&gt;result&lt;/span&gt;, &lt;span style=&quot;white-space: pre&quot;&gt;&#9;&lt;/span&gt;&lt;span style=&quot;color: #9cdcfe&quot;&gt;self&lt;/span&gt;.&lt;span style=&quot;color: #9cdcfe&quot;&gt;increment&lt;/span&gt;)&lt;/div&gt;&lt;/div&gt;" style="rounded=1;whiteSpace=wrap;html=1;align=left;" parent="1" vertex="1">
                    <mxGeometry x="320" y="660" width="500" height="290" as="geometry"/>
                </mxCell>
                <mxCell id="15" value="&lt;div style=&quot;color: rgb(212 , 212 , 212) ; background-color: rgb(30 , 30 , 30) ; font-family: &amp;#34;droid sans mono&amp;#34; , &amp;#34;monospace&amp;#34; , monospace ; font-size: 13px ; line-height: 18px&quot;&gt;&lt;div&gt; &lt;span style=&quot;color: #9cdcfe&quot;&gt;mean&lt;/span&gt;, &lt;span style=&quot;color: #9cdcfe&quot;&gt;ste&lt;/span&gt; = &lt;span style=&quot;color: #9cdcfe&quot;&gt;self&lt;/span&gt;.&lt;span style=&quot;color: #dcdcaa&quot;&gt;evaluate_with_result&lt;/span&gt;(&lt;span style=&quot;color: #9cdcfe&quot;&gt;result&lt;/span&gt;, &lt;span style=&quot;color: #569cd6&quot;&gt;False&lt;/span&gt;)&lt;/div&gt;&lt;div&gt;        &lt;span style=&quot;color: #9cdcfe&quot;&gt;std&lt;/span&gt; = &lt;span style=&quot;color: #9cdcfe&quot;&gt;ste&lt;/span&gt; * &lt;span style=&quot;color: #4ec9b0&quot;&gt;np&lt;/span&gt;.sqrt(&lt;span style=&quot;color: #9cdcfe&quot;&gt;tot_counts&lt;/span&gt;)  &lt;span style=&quot;color: #6a9955&quot;&gt;# We need the std of the counts, not the ste&lt;/span&gt;&lt;/div&gt;&lt;br&gt;&lt;div&gt;        &lt;span style=&quot;color: #6a9955&quot;&gt;# with parallel_backend('threading', n_jobs=1):&lt;/span&gt;&lt;/div&gt;&lt;div&gt;        &lt;span style=&quot;color: #9cdcfe&quot;&gt;gradient&lt;/span&gt; = Parallel(&lt;span style=&quot;color: #9cdcfe&quot;&gt;n_jobs&lt;/span&gt;=&lt;span style=&quot;color: #b5cea8&quot;&gt;4&lt;/span&gt;)(&lt;/div&gt;&lt;div&gt;            delayed(&lt;span style=&quot;color: #9cdcfe&quot;&gt;self&lt;/span&gt;.&lt;span style=&quot;color: #dcdcaa&quot;&gt;_estimate_variance_derivative&lt;/span&gt;)(&lt;span style=&quot;color: #9cdcfe&quot;&gt;simplified_counts&lt;/span&gt;, &lt;span style=&quot;color: #9cdcfe&quot;&gt;increment&lt;/span&gt;, &lt;span style=&quot;color: #9cdcfe&quot;&gt;i&lt;/span&gt;)&lt;/div&gt;&lt;div&gt;            &lt;span style=&quot;color: #c586c0&quot;&gt;for&lt;/span&gt; &lt;span style=&quot;color: #9cdcfe&quot;&gt;i&lt;/span&gt; &lt;span style=&quot;color: #c586c0&quot;&gt;in&lt;/span&gt; &lt;span style=&quot;color: #4ec9b0&quot;&gt;range&lt;/span&gt;(&lt;span style=&quot;color: #dcdcaa&quot;&gt;len&lt;/span&gt;(&lt;span style=&quot;color: #9cdcfe&quot;&gt;self&lt;/span&gt;.&lt;span style=&quot;color: #9cdcfe&quot;&gt;param_array&lt;/span&gt;))&lt;/div&gt;&lt;div&gt;        )&lt;/div&gt;&lt;/div&gt;" style="whiteSpace=wrap;html=1;rounded=1;" parent="1" vertex="1">
                    <mxGeometry x="440" y="1020" width="620" height="185" as="geometry"/>
                </mxCell>
            </root>
        </mxGraphModel>
    </diagram>
</mxfile>